<?xml version="1.0" standalone="no"?>
<!DOCTYPE svg PUBLIC "-//W3C//DTD SVG 20010904//EN"
 "http://www.w3.org/TR/2001/REC-SVG-20010904/DTD/svg10.dtd">
<svg version="1.0" xmlns="http://www.w3.org/2000/svg"
 width="512.000000pt" height="512.000000pt" viewBox="0 0 512.000000 512.000000"
 preserveAspectRatio="xMidYMid meet">

<g transform="translate(0.000000,512.000000) scale(0.100000,-0.100000)"
fill="#000000" stroke="none">
<path d="M2767 4749 c-57 -13 -134 -56 -183 -101 -54 -50 -110 -159 -119 -232
l-7 -55 -67 -6 c-137 -13 -256 -55 -322 -113 -77 -67 -117 -192 -106 -330 5
-65 16 -116 52 -247 5 -18 -85 -61 -872 -419 -1168 -532 -1116 -507 -1131
-540 -17 -39 -18 -2252 0 -2291 27 -59 -152 -55 2548 -55 2714 0 2523 -4 2549
58 9 21 11 325 8 1237 l-3 1210 -23 100 c-68 304 -201 568 -399 791 -155 176
-334 311 -557 419 -365 178 -601 186 -924 32 l-94 -45 -31 41 c-37 48 -119
101 -191 123 -27 8 -92 20 -143 26 l-94 11 7 36 c15 81 82 145 165 156 89 13
130 46 130 104 0 82 -77 117 -193 90z m61 -612 c121 -33 156 -123 116 -300
-58 -253 -238 -477 -384 -477 -54 0 -135 44 -191 102 -153 159 -250 463 -190
594 23 50 75 79 171 93 93 14 413 6 478 -12z m981 -48 c153 -41 331 -127 486
-237 103 -74 274 -245 348 -349 143 -201 238 -444 265 -675 l8 -68 -588 0
c-490 0 -594 -2 -617 -14 -66 -35 -66 -137 0 -172 23 -12 127 -14 619 -14
l590 0 0 -300 c0 -165 -2 -300 -5 -300 -18 0 -115 58 -161 96 -179 145 -407
174 -603 75 -32 -17 -89 -55 -127 -85 -89 -72 -157 -99 -249 -99 -93 0 -160
27 -255 103 -85 69 -149 103 -235 125 -160 41 -321 -1 -472 -123 -98 -79 -162
-106 -248 -106 -87 0 -150 27 -250 108 -228 184 -473 182 -707 -5 -93 -75
-161 -102 -253 -102 -92 0 -160 27 -249 99 -235 189 -497 192 -731 9 -59 -46
-144 -95 -165 -95 -7 0 -10 100 -10 300 l0 300 1390 0 c1184 0 1395 2 1419 14
28 15 51 53 51 87 0 28 -26 75 -47 85 -10 5 -563 11 -1229 14 l-1212 5 767
351 766 352 25 -31 c14 -17 43 -54 65 -81 22 -27 68 -71 102 -97 263 -201 566
-83 757 298 50 97 84 206 98 313 l13 93 112 53 c142 67 192 84 273 94 84 10
167 3 259 -21z m-2939 -2126 c25 -11 77 -45 115 -76 93 -75 181 -116 284 -134
162 -28 309 16 461 137 41 33 99 69 128 80 104 39 211 19 312 -58 202 -153
324 -193 490 -158 96 20 176 61 270 136 97 78 163 104 250 97 83 -5 137 -29
225 -100 93 -75 181 -116 284 -134 160 -28 310 16 456 134 102 82 142 97 250
97 107 0 148 -15 245 -94 74 -59 140 -96 220 -121 l55 -17 3 -196 c1 -108 0
-196 -3 -196 -18 0 -115 58 -161 96 -179 145 -407 174 -603 75 -32 -17 -89
-55 -127 -85 -89 -72 -157 -99 -249 -99 -93 0 -160 27 -255 103 -85 69 -149
103 -235 125 -160 41 -321 -1 -472 -123 -98 -79 -162 -106 -248 -106 -87 0
-150 27 -250 108 -228 184 -473 182 -707 -5 -93 -75 -161 -102 -253 -102 -92
0 -160 27 -249 99 -235 189 -497 192 -731 9 -59 -46 -144 -95 -165 -95 -6 0
-10 67 -10 194 l0 195 57 16 c81 24 146 59 233 126 100 78 162 101 260 96 45
-3 93 -12 120 -24z m0 -600 c25 -11 77 -45 115 -76 93 -75 181 -116 284 -134
162 -28 309 16 461 137 41 33 99 69 128 80 104 39 211 19 312 -58 202 -153
324 -193 490 -158 96 20 176 61 270 136 97 78 163 104 250 97 83 -5 137 -29
225 -100 93 -75 181 -116 284 -134 160 -28 310 16 456 134 102 82 142 97 250
97 107 0 148 -15 245 -94 74 -59 140 -96 220 -121 l55 -17 3 -296 2 -296
-2360 0 -2360 0 0 294 0 295 57 16 c81 24 146 59 233 126 100 78 162 101 260
96 45 -3 93 -12 120 -24z"/>
<path d="M3311 2746 c-87 -48 -50 -186 49 -186 51 0 100 49 100 99 0 75 -83
124 -149 87z"/>
<path d="M671 946 c-87 -48 -50 -186 49 -186 51 0 100 49 100 99 0 75 -83 124
-149 87z"/>
<path d="M1911 946 c-87 -48 -50 -186 49 -186 51 0 100 49 100 99 0 75 -83
124 -149 87z"/>
<path d="M3111 946 c-87 -48 -50 -186 49 -186 51 0 100 49 100 99 0 75 -83
124 -149 87z"/>
<path d="M4351 946 c-87 -48 -50 -186 49 -186 51 0 100 49 100 99 0 75 -83
124 -149 87z"/>
</g>
</svg>
