<?xml version="1.0" standalone="no"?>
<!DOCTYPE svg PUBLIC "-//W3C//DTD SVG 20010904//EN"
 "http://www.w3.org/TR/2001/REC-SVG-20010904/DTD/svg10.dtd">
<svg version="1.0" xmlns="http://www.w3.org/2000/svg"
 width="512.000000pt" height="512.000000pt" viewBox="0 0 512.000000 512.000000"
 preserveAspectRatio="xMidYMid meet">

<g transform="translate(0.000000,512.000000) scale(0.100000,-0.100000)"
fill="#000000" stroke="none">
<path d="M1065 4115 c-260 -41 -501 -137 -698 -277 -180 -128 -291 -258 -338
-395 -19 -55 -23 -88 -23 -178 0 -98 4 -119 31 -192 18 -46 42 -97 54 -114 15
-21 19 -36 13 -44 -32 -42 -62 -95 -72 -124 -27 -77 -7 -179 48 -248 18 -23
18 -28 6 -42 -23 -27 -38 -90 -31 -129 26 -147 237 -234 479 -197 159 24 183
22 220 -22 121 -143 229 -203 367 -203 84 0 151 20 226 69 95 61 114 59 194
-19 37 -36 86 -72 127 -92 62 -30 75 -33 167 -33 89 0 107 3 160 28 32 15 82
46 111 67 71 55 95 53 177 -14 81 -66 137 -94 216 -107 122 -19 234 17 345
112 74 63 99 64 173 8 30 -22 80 -53 111 -67 50 -24 70 -27 157 -27 94 0 105
2 169 34 41 20 92 57 128 92 33 33 67 60 76 60 39 3 59 -4 99 -32 67 -47 132
-70 215 -76 152 -11 265 46 395 200 37 44 57 46 225 21 108 -16 153 -12 300
22 42 10 58 -33 58 -154 0 -123 -21 -173 -90 -209 l-43 -23 -2255 0 -2256 0
-42 21 c-61 29 -86 74 -94 170 -5 55 -13 85 -25 99 -24 27 -79 26 -106 -1 -19
-19 -21 -30 -17 -113 3 -71 9 -102 28 -140 32 -63 93 -124 156 -156 l49 -25
2179 -5 2180 -5 9 -35 c5 -19 7 -69 5 -110 -10 -164 -137 -310 -312 -356 -75
-20 -3436 -20 -3511 0 -148 39 -280 168 -309 302 -16 74 -94 101 -136 47 -24
-31 -22 -60 11 -149 62 -164 215 -295 410 -351 61 -17 154 -18 1774 -18 1603
0 1714 1 1779 18 197 50 347 178 418 355 19 48 22 76 23 178 l0 122 48 5 c98
12 198 86 247 183 23 46 25 59 25 194 0 139 -1 147 -27 198 -28 53 -28 54 -11
104 14 43 14 58 4 97 -7 25 -19 53 -27 62 -13 14 -12 19 6 42 55 69 75 171 48
248 -10 29 -40 82 -72 124 -6 8 -2 23 13 44 12 17 36 68 54 114 27 73 31 94
31 192 0 90 -4 123 -23 178 -74 218 -337 441 -679 577 -192 76 -381 110 -612
110 -212 0 -388 -30 -567 -95 l-66 -23 -82 29 c-177 62 -343 89 -555 89 -203
0 -365 -26 -535 -83 l-70 -24 -55 19 c-83 29 -205 58 -305 74 -111 17 -390 16
-500 -1z m520 -155 c64 -11 121 -23 126 -26 6 -3 -23 -26 -63 -51 -150 -92
-286 -219 -350 -325 -46 -75 -50 -117 -12 -147 49 -39 89 -20 135 61 20 35 64
89 107 129 213 199 482 323 801 369 165 24 511 -1 630 -45 8 -3 -19 -27 -70
-61 -156 -105 -253 -199 -303 -294 -44 -83 -46 -121 -10 -149 53 -42 93 -22
139 68 34 68 73 111 169 186 197 153 438 254 706 295 93 14 340 12 445 -4 230
-35 417 -108 608 -236 249 -166 351 -334 319 -526 -31 -190 -179 -343 -378
-394 -76 -20 -115 -20 -2024 -20 -1909 0 -1948 0 -2024 20 -199 51 -347 204
-378 394 -32 192 70 360 319 526 148 99 284 161 458 206 180 48 453 58 650 24z
m-1204 -1254 c132 -62 173 -66 694 -66 279 0 465 -4 465 -9 0 -18 -75 -72
-147 -107 -340 -165 -958 -121 -1167 82 -61 59 -71 112 -35 170 l21 34 48 -35
c26 -19 80 -50 121 -69z m4565 36 c12 -42 -5 -89 -47 -131 -208 -208 -828
-254 -1172 -87 -72 35 -147 89 -147 107 0 5 186 9 465 9 381 0 480 3 543 15
84 17 214 75 277 123 l40 31 18 -22 c9 -12 20 -32 23 -45z m-1716 -112 c0 -5
-21 -25 -47 -45 -285 -218 -961 -218 -1246 0 -26 20 -47 40 -47 45 0 6 251 10
670 10 419 0 670 -4 670 -10z m-1493 -37 c23 -50 109 -134 177 -172 398 -228
1132 -184 1400 84 29 28 60 69 70 90 l19 39 20 -40 c11 -21 46 -64 77 -95 118
-116 345 -196 622 -221 l143 -13 -55 -59 c-116 -124 -246 -141 -375 -49 -60
43 -90 53 -156 53 -78 0 -131 -26 -200 -97 -64 -67 -120 -93 -197 -93 -64 0
-121 22 -173 67 -61 52 -91 65 -154 71 -81 6 -121 -8 -190 -69 -80 -70 -128
-92 -200 -93 -75 0 -131 24 -202 88 -63 57 -107 76 -173 76 -62 0 -108 -19
-175 -70 -68 -52 -113 -70 -178 -70 -75 0 -118 21 -198 96 -82 77 -118 94
-198 94 -66 0 -96 -10 -156 -53 -60 -43 -101 -57 -164 -57 -78 0 -143 33 -210
106 l-54 59 142 13 c282 25 506 106 626 227 33 33 67 75 74 93 7 17 15 32 17
32 2 0 11 -17 21 -37z m-1467 -198 c27 -13 81 -35 120 -49 82 -27 71 -40 -22
-25 -103 15 -182 59 -162 90 7 12 8 12 64 -16z m4644 16 c20 -31 -60 -76 -160
-90 -97 -14 -104 -2 -17 28 43 15 96 37 118 49 46 24 52 25 59 13z"/>
</g>
</svg>
